<?xml version="1.0" encoding="UTF-8"?>
<svg id="Layer_1" data-name="Layer 1" xmlns="http://www.w3.org/2000/svg" viewBox="0 0 759.69 734.58">
  <defs>
    <style>
      .cls-1 {
        fill: #83254f;
      }

      .cls-2 {
        fill: #191919;
        stroke-linecap: square;
      }

      .cls-2, .cls-3, .cls-4, .cls-5, .cls-6, .cls-7 {
        stroke: #191919;
      }

      .cls-2, .cls-4 {
        stroke-linejoin: round;
      }

      .cls-2, .cls-5 {
        stroke-width: 11.38px;
      }

      .cls-3 {
        stroke-width: 9.3px;
      }

      .cls-3, .cls-4, .cls-5, .cls-6, .cls-7 {
        fill: none;
        stroke-linecap: round;
      }

      .cls-3, .cls-5, .cls-6, .cls-7 {
        stroke-miterlimit: 2;
      }

      .cls-4 {
        stroke-width: 17.38px;
      }

      .cls-6 {
        stroke-width: 9.15px;
      }

      .cls-7 {
        stroke-width: 11.48px;
      }
    </style>
  </defs>
  <path class="cls-5" d="m259.92,652.96c-34.17.42-48.09,21.84-51.88,53.73"/>
  <path class="cls-5" d="m305.09,648.31c-34.17.42-48.09,21.84-51.88,53.73"/>
  <path class="cls-3" d="m220.59,247.73S-86.37,333.47,31.67,513.02c118.04,179.55,223.82-244.81,221.5-249.8"/>
  <path class="cls-1" d="m137.27,346.03c1.45-66.23,12.22-125.63,31.39-179.16,20.1-52.57,48.49-94.68,86.1-124.43C291.43,11.71,338.16-2.02,393.06.24c55.85,2.3,100.94,19.8,137.16,53.51,35.29,32.75,61.79,77.11,78.61,131.2,16.8,55.01,24.96,115.19,23.51,181.42s-12.22,125.63-31.37,178.24c-19.15,52.61-47.55,94.72-85.17,125.39-36.65,29.8-83.4,44.45-138.3,42.19-54.9-2.26-100.92-20.72-136.21-53.47-36.21-33.71-62.72-78.07-80.49-132.2-16.82-54.09-24.98-114.27-23.53-180.5Z"/>
  <ellipse class="cls-2" cx="247.03" cy="178.85" rx="24.49" ry="25.36"/>
  <ellipse class="cls-2" cx="360.32" cy="178.85" rx="24.49" ry="25.36"/>
  <path class="cls-6" d="m555.63,285.14s301.48,107.71,163.19,274.68c-138.29,166.97-200.65-257.29-197.78-262"/>
  <path class="cls-5" d="m401.24,675.17c34.17.42,48.09,21.84,51.88,53.73"/>
  <path class="cls-5" d="m500.18,648.31c34.17.42,48.09,21.84,51.88,53.73"/>
  <path class="cls-7" d="m463.77,662.31c34.24.85,47.54,22.39,50.4,54.24"/>
  <path class="cls-4" d="m271.52,255.16c0,1.06,11.81,14.63,28.27,2.13.49-.09,12.28,13.99,28.08,2.93"/>
</svg>